<?xml version="1.0" encoding="UTF-8"?><svg xmlns="http://www.w3.org/2000/svg" viewBox="0 0 374.79 374.79"><g id="a"><path d="M234.93,369.79c-.43,0-.87-.06-1.29-.17l-177.4-47.53c-1.73-.46-3.07-1.81-3.54-3.54L5.17,141.16c-.46-1.73.03-3.57,1.29-4.83L136.33,6.46c.95-.95,2.23-1.46,3.54-1.46.43,0,.87.06,1.29.17l177.4,47.53c1.73.46,3.07,1.81,3.54,3.54l47.53,177.4c.46,1.73-.03,3.57-1.29,4.83l-129.86,129.86c-.95.95-2.23,1.46-3.54,1.46Z" style="fill:#c29fd6;"/><path d="M139.86,10l177.39,47.53,47.53,177.39-129.86,129.86-177.39-47.53L10,139.86,139.86,10M139.86,0c-2.62,0-5.17,1.03-7.07,2.93L2.93,132.79c-2.53,2.53-3.51,6.21-2.59,9.66l47.53,177.39c.92,3.45,3.62,6.15,7.07,7.07l177.39,47.53c.86.23,1.72.34,2.59.34,2.62,0,5.17-1.03,7.07-2.93l129.86-129.86c2.53-2.53,3.51-6.21,2.59-9.66l-47.53-177.39c-.92-3.45-3.62-6.15-7.07-7.07L142.45.34c-.86-.23-1.72-.34-2.59-.34h0Z" style="fill:#1f1d23;"/></g><g id="b"><polygon points="128.8 246.01 107.35 165.95 165.96 107.34 246.02 128.79 267.48 208.85 208.87 267.46 128.8 246.01" style="fill:#d9c3ed;"/><path d="M167.31,112.35l75.05,20.11,20.11,75.05-54.94,54.94-75.05-20.11-20.11-75.05,54.94-54.94M164.62,102.32l-3.67,3.67-54.94,54.94-3.67,3.67,1.34,5.02,20.11,75.05,1.34,5.02,5.02,1.34,75.05,20.11,5.02,1.34,3.67-3.67,54.94-54.94,3.67-3.67-1.34-5.02-20.11-75.05-1.34-5.02-5.02-1.34-75.05-20.11-5.02-1.34h0Z" style="fill:#a486bc;"/></g><g id="c"><line x1="187.39" y1="187.39" x2="57.53" y2="317.26" style="fill:none; stroke:#1f1d23; stroke-linejoin:bevel; stroke-width:5px;"/><line x1="364.79" y1="234.93" x2="187.39" y2="187.39" style="fill:none; stroke:#1f1d23; stroke-linejoin:bevel; stroke-width:5px;"/><line x1="234.93" y1="364.79" x2="187.39" y2="187.39" style="fill:none; stroke:#1f1d23; stroke-linejoin:bevel; stroke-width:5px;"/><line x1="57.53" y1="317.26" x2="364.79" y2="234.93" style="fill:none; stroke:#1f1d23; stroke-linejoin:bevel; stroke-width:5px;"/><line x1="317.26" y1="57.53" x2="187.39" y2="187.39" style="fill:none; stroke:#1f1d23; stroke-linejoin:bevel; stroke-width:5px;"/><line x1="234.93" y1="364.79" x2="317.26" y2="57.53" style="fill:none; stroke:#1f1d23; stroke-linejoin:bevel; stroke-width:5px;"/><line x1="187.39" y1="187.39" x2="139.86" y2="10" style="fill:none; stroke:#1f1d23; stroke-linejoin:bevel; stroke-width:5px;"/><line x1="364.79" y1="234.93" x2="139.86" y2="10" style="fill:none; stroke:#1f1d23; stroke-linejoin:bevel; stroke-width:5px;"/><line x1="10" y1="139.86" x2="187.39" y2="187.39" style="fill:none; stroke:#1f1d23; stroke-linejoin:bevel; stroke-width:5px;"/><line x1="139.86" y1="10" x2="57.53" y2="317.26" style="fill:none; stroke:#1f1d23; stroke-linejoin:bevel; stroke-width:5px;"/><line x1="10" y1="139.86" x2="234.93" y2="364.79" style="fill:none; stroke:#1f1d23; stroke-linejoin:bevel; stroke-width:5px;"/><line x1="317.26" y1="57.53" x2="10" y2="139.86" style="fill:none; stroke:#1f1d23; stroke-linejoin:bevel; stroke-width:5px;"/></g><g id="d"><line x1="211.16" y1="276.09" x2="122.46" y2="252.33" style="fill:none; stroke:#1f1d23; stroke-linejoin:bevel; stroke-width:7px;"/><line x1="276.09" y1="211.16" x2="211.16" y2="276.09" style="fill:none; stroke:#1f1d23; stroke-linejoin:bevel; stroke-width:7px;"/><line x1="252.33" y1="122.46" x2="276.09" y2="211.16" style="fill:none; stroke:#1f1d23; stroke-linejoin:bevel; stroke-width:7px;"/><line x1="122.46" y1="252.33" x2="98.7" y2="163.63" style="fill:none; stroke:#1f1d23; stroke-linejoin:bevel; stroke-width:7px;"/><line x1="163.63" y1="98.7" x2="252.33" y2="122.46" style="fill:none; stroke:#1f1d23; stroke-linejoin:bevel; stroke-width:7px;"/><line x1="98.7" y1="163.63" x2="163.63" y2="98.7" style="fill:none; stroke:#1f1d23; stroke-linejoin:bevel; stroke-width:7px;"/></g></svg>